<?xml version="1.0" encoding="UTF-8" standalone="no"?><svg xmlns="http://www.w3.org/2000/svg" xmlns:xlink="http://www.w3.org/1999/xlink" clip-rule="evenodd" stroke-miterlimit="10" viewBox="0 0 1024 768"><desc>SVG generated by Keynote</desc><defs></defs><g transform="matrix(1.00, 0.00, -0.00, -1.00, 0.0, 768.0)"><path d="M 0.0 768.0 L 1024.0 768.0 L 1024.0 0.0 L 0.0 0.0 Z M 0.0 768.0 " fill="#FEFFFF"></path><text xml:space="preserve" font-family="Helvetica-Light,Helvetica" font-size="80.0" fill="#000000" transform="matrix(1.00, 0.00, -0.00, -1.00, 136.4, 618.4)">M</text><text xml:space="preserve" font-family="Helvetica-Light,Helvetica" font-size="80.0" fill="#000000" transform="matrix(1.00, 0.00, -0.00, -1.00, 203.0, 618.4)">a</text><text xml:space="preserve" font-family="Helvetica-Light,Helvetica" font-size="80.0" fill="#000000" transform="matrix(1.00, 0.00, -0.00, -1.00, 247.5, 618.4)">k</text><text xml:space="preserve" font-family="Helvetica-Light,Helvetica" font-size="80.0" fill="#000000" transform="matrix(1.00, 0.00, -0.00, -1.00, 287.5, 618.4)">e</text><text xml:space="preserve" font-family="Helvetica-Light,Helvetica" font-size="80.0" fill="#000000" transform="matrix(1.00, 0.00, -0.00, -1.00, 332.0, 618.4)"> </text><text xml:space="preserve" font-family="Helvetica-Light,Helvetica" font-size="80.0" fill="#000000" transform="matrix(1.00, 0.00, -0.00, -1.00, 354.2, 618.4)">a</text><text xml:space="preserve" font-family="Helvetica-Light,Helvetica" font-size="80.0" fill="#000000" transform="matrix(1.00, 0.00, -0.00, -1.00, 398.7, 618.4)"> </text><text xml:space="preserve" font-family="Helvetica-Light,Helvetica" font-size="80.0" fill="#000000" transform="matrix(1.00, 0.00, -0.00, -1.00, 421.0, 618.4)">R</text><text xml:space="preserve" font-family="Helvetica-Light,Helvetica" font-size="80.0" fill="#000000" transform="matrix(1.00, 0.00, -0.00, -1.00, 474.3, 618.4)">E</text><text xml:space="preserve" font-family="Helvetica-Light,Helvetica" font-size="80.0" fill="#000000" transform="matrix(1.00, 0.00, -0.00, -1.00, 523.2, 618.4)">A</text><text xml:space="preserve" font-family="Helvetica-Light,Helvetica" font-size="80.0" fill="#000000" transform="matrix(1.00, 0.00, -0.00, -1.00, 576.6, 618.4)">D</text><text xml:space="preserve" font-family="Helvetica-Light,Helvetica" font-size="80.0" fill="#000000" transform="matrix(1.00, 0.00, -0.00, -1.00, 634.3, 618.4)">M</text><text xml:space="preserve" font-family="Helvetica-Light,Helvetica" font-size="80.0" fill="#000000" transform="matrix(1.00, 0.00, -0.00, -1.00, 701.0, 618.4)">E</text><text xml:space="preserve" font-family="Helvetica-Light,Helvetica" font-size="80.0" fill="#000000" transform="matrix(1.00, 0.00, -0.00, -1.00, 749.8, 618.4)">.</text><text xml:space="preserve" font-family="Helvetica-Light,Helvetica" font-size="80.0" fill="#000000" transform="matrix(1.00, 0.00, -0.00, -1.00, 772.1, 618.4)">m</text><text xml:space="preserve" font-family="Helvetica-Light,Helvetica" font-size="80.0" fill="#000000" transform="matrix(1.00, 0.00, -0.00, -1.00, 838.7, 618.4)">d</text><text xml:space="preserve" font-family="Monaco,Monaco" font-size="45.0" fill="#0B5C18" transform="matrix(1.00, 0.00, -0.00, -1.00, 79.0, 299.0)">$</text><text xml:space="preserve" font-family="Monaco,Monaco" font-size="45.0" fill="#0B5C18" transform="matrix(1.00, 0.00, -0.00, -1.00, 106.0, 299.0)"> </text><text xml:space="preserve" font-family="Monaco,Monaco" font-size="45.0" fill="#0B5C18" transform="matrix(1.00, 0.00, -0.00, -1.00, 133.0, 299.0)">t</text><text xml:space="preserve" font-family="Monaco,Monaco" font-size="45.0" fill="#0B5C18" transform="matrix(1.00, 0.00, -0.00, -1.00, 160.0, 299.0)">o</text><text xml:space="preserve" font-family="Monaco,Monaco" font-size="45.0" fill="#0B5C18" transform="matrix(1.00, 0.00, -0.00, -1.00, 187.0, 299.0)">u</text><text xml:space="preserve" font-family="Monaco,Monaco" font-size="45.0" fill="#0B5C18" transform="matrix(1.00, 0.00, -0.00, -1.00, 214.0, 299.0)">c</text><text xml:space="preserve" font-family="Monaco,Monaco" font-size="45.0" fill="#0B5C18" transform="matrix(1.00, 0.00, -0.00, -1.00, 241.1, 299.0)">h</text><text xml:space="preserve" font-family="Monaco,Monaco" font-size="45.0" fill="#0B5C18" transform="matrix(1.00, 0.00, -0.00, -1.00, 268.1, 299.0)"> </text><text xml:space="preserve" font-family="Monaco,Monaco" font-size="45.0" fill="#0B5C18" transform="matrix(1.00, 0.00, -0.00, -1.00, 295.1, 299.0)">R</text><text xml:space="preserve" font-family="Monaco,Monaco" font-size="45.0" fill="#0B5C18" transform="matrix(1.00, 0.00, -0.00, -1.00, 322.1, 299.0)">E</text><text xml:space="preserve" font-family="Monaco,Monaco" font-size="45.0" fill="#0B5C18" transform="matrix(1.00, 0.00, -0.00, -1.00, 349.1, 299.0)">A</text><text xml:space="preserve" font-family="Monaco,Monaco" font-size="45.0" fill="#0B5C18" transform="matrix(1.00, 0.00, -0.00, -1.00, 376.1, 299.0)">D</text><text xml:space="preserve" font-family="Monaco,Monaco" font-size="45.0" fill="#0B5C18" transform="matrix(1.00, 0.00, -0.00, -1.00, 403.1, 299.0)">M</text><text xml:space="preserve" font-family="Monaco,Monaco" font-size="45.0" fill="#0B5C18" transform="matrix(1.00, 0.00, -0.00, -1.00, 430.1, 299.0)">E</text><text xml:space="preserve" font-family="Monaco,Monaco" font-size="45.0" fill="#0B5C18" transform="matrix(1.00, 0.00, -0.00, -1.00, 457.1, 299.0)">.</text><text xml:space="preserve" font-family="Monaco,Monaco" font-size="45.0" fill="#0B5C18" transform="matrix(1.00, 0.00, -0.00, -1.00, 484.1, 299.0)">m</text><text xml:space="preserve" font-family="Monaco,Monaco" font-size="45.0" fill="#0B5C18" transform="matrix(1.00, 0.00, -0.00, -1.00, 511.1, 299.0)">d</text></g></svg>